# xmcd
#
# Track frame offsets: 
#        150
#        12726
#        26648
#        37435
#        50484
#        63678
#        75823
#        88698
#        103375
#        114615
#        126703
#        138561
#        150996
#        162755
#        177748
#        189912
#        202063
#        217054
#        229854
#        240250
#        252479
#        263257
#        277252
#        290075
#        302470
#
# Disc length: 4225 seconds
#
# Revision: 0
# Processed by: cddbd v1.5.2PL0 Copyright (c) Steve Scherf et al.
# Submitted via: ExactAudioCopyFreeDBPlugin 1.0
#
DISCID=7d107f19
DTITLE=Elmore James - Blues Master Works - Elmore James
DYEAR=2013
DGENRE=Blues
TTITLE0=Dust My Broom
TTITLE1=It Hurts Me Too
TTITLE2=(I Must Have) Done Somebody Wrong
TTITLE3=Sho Nuff I Do
TTITLE4=Baby What's Wrong?
TTITLE5=Blues Before Sunrise
TTITLE6=The Sky Is Crying
TTITLE7=Stranger Blues
TTITLE8=Look On Yonder Wall
TTITLE9=Knocking At Your Door
TTITLE10=Make My Dreams Come True
TTITLE11=Cry For Me Baby
TTITLE12=Rollin' And Tumblin'
TTITLE13=Wild About You
TTITLE14=Happy Home
TTITLE15=Late Hours At Midnight
TTITLE16=Sunny Land
TTITLE17=Dark And Dreary
TTITLE18=I Can't Hold Out
TTITLE19=Country Boogie
TTITLE20=Can't Stop Lovin'
TTITLE21=Please Find My Baby
TTITLE22=Hand In Hand
TTITLE23=Early In The Morning
TTITLE24=I Believe
EXTD=
EXTT0=
EXTT1=
EXTT2=
EXTT3=
EXTT4=
EXTT5=
EXTT6=
EXTT7=
EXTT8=
EXTT9=
EXTT10=
EXTT11=
EXTT12=
EXTT13=
EXTT14=
EXTT15=
EXTT16=
EXTT17=
EXTT18=
EXTT19=
EXTT20=
EXTT21=
EXTT22=
EXTT23=
EXTT24=
PLAYORDER=
